<svg xmlns="http://www.w3.org/2000/svg" viewBox="0 0 960 540" role="img" aria-labelledby="title desc">
  <title id="title">Handmade Ad Gallery preview</title>
  <desc id="desc">A preview of an ad demo gallery with category buttons and a mobile iframe mockup.</desc>
  <rect width="960" height="540" fill="#F6F7F4"/>
  <rect x="70" y="58" width="820" height="56" rx="8" fill="#FFFFFF"/>
  <text x="96" y="94" fill="#2F6F73" font-family="Arial, sans-serif" font-size="20" font-weight="700">Handmade Ad Gallery</text>
  <rect x="70" y="146" width="430" height="318" rx="12" fill="#FFFFFF"/>
  <text x="98" y="188" fill="#303936" font-family="Arial, sans-serif" font-size="24" font-weight="700">文中</text>
  <g fill="#2F6F73">
    <rect x="98" y="212" width="76" height="34" rx="5"/>
    <rect x="188" y="212" width="126" height="34" rx="5"/>
    <rect x="328" y="212" width="128" height="34" rx="5"/>
  </g>
  <g fill="#F8FAF7" stroke="#D5DED9">
    <rect x="98" y="262" width="132" height="34" rx="5"/>
    <rect x="244" y="262" width="150" height="34" rx="5"/>
    <rect x="98" y="312" width="166" height="34" rx="5"/>
    <rect x="278" y="312" width="120" height="34" rx="5"/>
  </g>
  <text x="98" y="400" fill="#303936" font-family="Arial, sans-serif" font-size="24" font-weight="700">置底 + 蓋板</text>
  <g fill="#F8FAF7" stroke="#D5DED9">
    <rect x="98" y="424" width="76" height="34" rx="5"/>
    <rect x="188" y="424" width="126" height="34" rx="5"/>
    <rect x="328" y="424" width="96" height="34" rx="5"/>
  </g>
  <rect x="586" y="132" width="242" height="380" rx="34" fill="#111615"/>
  <rect x="606" y="162" width="202" height="320" rx="3" fill="#FFFFFF"/>
  <rect x="674" y="146" width="66" height="5" rx="3" fill="#2C3331"/>
  <rect x="628" y="188" width="158" height="92" rx="7" fill="#E6F0EC"/>
  <rect x="650" y="306" width="114" height="14" rx="7" fill="#2F6F73"/>
  <rect x="650" y="334" width="114" height="14" rx="7" fill="#D5DED9"/>
  <rect x="650" y="362" width="78" height="14" rx="7" fill="#D5DED9"/>
</svg>
